<?xml version="1.0" standalone="no"?><!DOCTYPE svg PUBLIC "-//W3C//DTD SVG 1.1//EN" "http://www.w3.org/Graphics/SVG/1.1/DTD/svg11.dtd"><svg t="1720413798222" class="icon" viewBox="0 0 1024 1024" version="1.1" xmlns="http://www.w3.org/2000/svg" p-id="9361" xmlns:xlink="http://www.w3.org/1999/xlink" width="200" height="200"><path d="M975.9744 316.1088c63.1296 92.6208-44.8 114.9952-44.6464 147.968 0.8192 136.448-82.8928 295.8848-267.6736 371.9168s-379.9552 57.6512-488.704-34.0992c-26.5216-22.3744-94.0544 41.5232-135.8848-61.44C5.12 657.152 95.3344 656.128 97.28 618.2912c6.8608-132.5056 115.5072-278.4256 293.888-351.744 150.784-61.952 309.0944-48.7424 421.2736 3.7376 81.408 37.9904 103.6288-42.1376 163.4816 46.08z m0 0" fill="#E1F1FF" p-id="9362"></path><path d="M622.336 766.5664c-115.6096 56.0128-235.1616 84.3264-346.368 87.04 110.336 37.7856 252.672 27.9552 386.9696-37.1712 142.2336-69.0176 220.8256-190.8736 245.4528-311.296-60.672 103.9872-154.88 197.7856-286.0544 261.4272z m0 0" fill="#5093FF" p-id="9363"></path><path d="M430.9504 909.8752c-106.1888 0-203.5712-31.6416-272.3328-93.44a120.2176 120.2176 0 0 0-16.4352 1.9968c-32.256 5.12-92.16 14.9504-128-79.9744-28.3136-75.264 14.2336-107.52 39.6288-127.0272 5.9904-4.5056 16.0768-12.2368 16.896-15.36 7.7312-162.0992 132.3008-323.9424 309.76-402.5344 145.0496-64.3584 311.04-62.5152 444.0576 4.6592 26.0096 13.1072 42.1888 9.216 61.0816 4.8128 37.2736-8.96 71.68-10.9568 112.64 54.1696 54.5792 86.4256 2.816 134.144-24.8832 159.744a122.5728 122.5728 0 0 0-15.36 15.8208c0 137.9328-73.9328 330.9568-283.4944 423.8848a609.28 609.28 0 0 1-243.6096 53.1968z m-273.0496-146.6368a49.8176 49.8176 0 0 1 35.072 12.4928c104.3456 94.9248 289.2288 107.9296 460.032 32.1536 186.9824-82.8928 252.5696-254.9248 251.8016-376.7808 0-23.1936 16.5888-38.656 32.768-53.4528 27.2384-25.0368 46.848-43.1616 15.9232-92.16-24.1664-38.2464-32-36.4032-55.3984-30.72s-54.0672 12.8512-97.28-9.1136c-118.9376-60.0576-267.8784-61.44-398.4896-3.4304-159.488 70.7584-271.36 213.9648-278.0672 356.4544-1.3312 27.3408-21.5552 42.8032-37.888 55.1936-23.552 17.8688-36.4032 27.6992-22.0672 65.8432 20.48 54.1696 39.9872 50.8416 69.5296 46.08a159.3856 159.3856 0 0 1 24.1664-2.4576z m0 0" fill="#2765C1" p-id="9364"></path><path d="M461.1072 653.8752a26.624 26.624 0 1 0 13.312-23.04 26.5728 26.5728 0 0 0-13.312 23.04z m0 0M545.5872 620.6464a26.624 26.624 0 1 0 13.312-23.04 26.5728 26.5728 0 0 0-13.312 23.04z m0 0M626.6368 574.0544a26.624 26.624 0 1 0 13.312-23.04 26.5728 26.5728 0 0 0-13.312 23.04z m0 0M406.6816 763.7504a19.968 19.968 0 1 0 19.968-20.0192 19.968 19.968 0 0 0-19.968 20.0192z m0 0M484.3008 737.28a23.296 23.296 0 1 0 23.2448-23.296 23.296 23.296 0 0 0-23.2448 23.296z m0 0M562.2784 700.4672a29.9008 29.9008 0 1 0 14.9504-25.9072 29.8496 29.8496 0 0 0-14.9504 25.9072z m0 0M653.2096 657.2032a26.624 26.624 0 1 0 13.312-23.04 26.624 26.624 0 0 0-13.312 23.04z m0 0M729.7536 593.92a23.296 23.296 0 1 0 23.296-23.296 23.296 23.296 0 0 0-23.296 23.296z m0 0" fill="#5093FF" p-id="9365"></path><path d="M247.3472 435.2a14.7968 14.7968 0 0 1-9.216-3.1744 15.36 15.36 0 0 1-2.6112-21.248 424.192 424.192 0 0 1 134.656-112.9472c6.3488-3.328 12.7488-6.6048 19.0976-9.6768a15.36 15.36 0 0 1 20.48 7.168 15.36 15.36 0 0 1-7.2192 20.48c-5.9392 2.816-12.032 5.888-17.8176 9.0624a393.9328 393.9328 0 0 0-125.2352 104.448A15.36 15.36 0 0 1 247.3472 435.2z m0 0M434.5856 277.8112a17.7152 17.7152 0 1 0 17.7152-17.7152 17.7152 17.7152 0 0 0-17.7152 17.7152z m0 0" fill="#2765C1" p-id="9366"></path></svg>